<svg version="1.1" id="Layer_1" xmlns="http://www.w3.org/2000/svg" xmlns:xlink="http://www.w3.org/1999/xlink" x="0px" y="0px"
	 width="100%" viewBox="0 0 1024 1024" enable-background="new 0 0 1024 1024" xml:space="preserve">
<path fill="#000000" opacity="1.000000" stroke="none" 
	d="
M1.000000,520.468628 
	C3.059914,523.951721 2.648848,528.413574 3.560102,532.607361 
	C6.920671,548.073303 13.744161,561.803589 23.898066,573.865967 
	C25.889856,576.232117 26.171707,578.068604 24.864887,580.965271 
	C5.609830,623.645752 17.655668,669.801514 55.348064,697.445801 
	C58.946362,700.084961 59.397846,702.568604 58.659595,706.693481 
	C51.264141,748.014954 74.883301,791.216675 113.675003,807.716187 
	C119.216187,810.073059 123.705536,811.534912 124.825508,819.825745 
	C129.930740,857.618286 151.359680,883.206482 186.843826,896.974304 
	C194.165253,899.815002 201.875214,901.346497 209.741776,901.678894 
	C213.062042,901.819153 214.651398,903.256409 215.841675,906.357117 
	C228.873352,940.304443 253.660492,960.353027 289.102539,967.271729 
	C299.449707,969.291626 310.033600,968.851196 320.422302,967.099060 
	C324.154114,966.469727 326.211365,967.406494 328.325989,970.386108 
	C342.330963,990.119446 361.259369,1002.848267 384.851105,1007.880920 
	C405.579651,1012.302795 425.965729,1010.488403 445.291077,1001.126160 
	C447.906433,999.859131 449.649780,999.937134 451.958557,1001.845093 
	C467.228149,1014.464417 484.487915,1022.464050 504.497925,1023.838867 
	C505.132477,1023.882446 505.744049,1024.260254 506.683167,1024.741211 
	C338.406311,1025.000000 169.812637,1025.000000 1.000000,1025.000000 
	C1.000000,856.979187 1.000000,688.958252 1.000000,520.468628 
z"/>
<path fill="#000000" opacity="1.000000" stroke="none" 
	d="
M519.468628,1025.000000 
	C521.922974,1022.390259 525.709229,1023.567871 529.026733,1022.984741 
	C545.871643,1020.023743 560.682922,1012.936279 573.764526,1002.113708 
	C576.127869,1000.158569 577.924866,999.755920 580.846313,1001.129089 
	C621.613159,1020.289795 669.709534,1008.147339 696.499817,971.892517 
	C699.368958,968.009766 701.902649,966.613159 707.149902,967.356323 
	C752.576965,973.790344 793.748962,949.356506 809.975586,906.694092 
	C811.301514,903.208069 813.202759,901.853638 816.894653,901.634583 
	C857.336243,899.234436 894.720703,865.240601 900.440796,824.653442 
	C901.778992,815.158142 905.254761,810.554443 914.067200,806.500000 
	C945.526306,792.026367 962.934631,766.614746 967.870483,732.411011 
	C969.175232,723.369446 968.688538,714.448486 967.117371,705.592651 
	C966.450684,701.834656 967.512146,699.774841 970.436096,697.674194 
	C992.062317,682.136902 1005.311462,661.201904 1009.092407,634.838196 
	C1011.740112,616.376892 1009.629761,598.279419 1001.397705,581.237244 
	C1000.252380,578.866150 999.505310,576.951599 1001.588257,574.473389 
	C1014.355042,559.284241 1021.960327,541.835022 1023.978821,522.024841 
	C1024.027100,521.550598 1024.345459,521.103821 1024.768921,520.322144 
	C1025.000000,688.333313 1025.000000,856.666687 1025.000000,1025.000000 
	C1012.584106,1025.000000 1000.260681,1025.000000 987.473328,1024.727051 
	C982.640686,1022.527649 978.414368,1020.026062 973.682800,1019.291199 
	C968.486023,1018.484131 963.247986,1018.596069 959.201721,1022.985962 
	C957.859985,1024.441650 959.744019,1024.333496 960.000000,1025.000000 
	C813.312439,1025.000000 666.624878,1025.000000 519.468628,1025.000000 
z"/>
<path fill="#000000" opacity="1.000000" stroke="none" 
	d="
M506.531342,1.000000 
	C502.592407,3.268486 497.620239,2.774505 492.944580,3.754833 
	C477.893402,6.910552 464.743896,13.738912 453.007446,23.399225 
	C450.016571,25.861017 447.736023,26.111427 444.131500,24.577839 
	C411.443817,10.670421 380.141998,13.421255 350.589447,33.278469 
	C341.673065,39.269669 334.088562,46.784069 328.159424,55.807369 
	C326.264587,58.691002 324.128052,59.604664 320.641052,58.998318 
	C275.774475,51.196701 232.220749,76.235489 216.130692,119.112053 
	C214.835358,122.563828 213.143997,124.066078 209.383820,124.326744 
	C168.215775,127.180588 131.685654,160.225098 125.629128,201.116394 
	C124.242462,210.478592 121.248672,215.405060 112.223564,219.345551 
	C82.190170,232.458557 65.301697,256.689819 58.795685,288.317444 
	C56.605606,298.964020 56.988766,309.897003 58.843487,320.620148 
	C59.451752,324.136841 58.729481,326.145996 55.878033,328.151062 
	C33.879307,343.620026 20.740980,364.757874 16.885960,391.317291 
	C14.200937,409.815918 16.348045,427.871521 24.611517,444.893982 
	C25.779240,447.299438 26.497448,449.143066 24.373545,451.603973 
	C11.608725,466.394073 4.173724,483.557404 2.077785,503.010132 
	C2.026824,503.483093 1.702972,503.926666 1.253198,504.691956 
	C1.000000,338.312439 1.000000,171.624878 1.359438,4.513259 
	C2.706346,4.124896 3.700659,4.253515 4.680189,4.181386 
	C11.694870,3.664847 11.917267,3.862636 12.017564,10.975566 
	C12.050132,13.285293 11.789966,15.625079 12.623263,17.863026 
	C13.677342,20.693911 15.658649,22.163887 18.733879,21.802250 
	C21.904305,21.429419 21.972643,18.981762 22.034765,16.596588 
	C22.077868,14.941652 22.010006,13.282181 22.097717,11.630364 
	C22.347969,6.917497 24.055136,3.644701 29.563793,3.889890 
	C31.379868,3.970723 33.257923,3.705208 35.339260,2.401663 
	C30.529701,1.386998 26.092077,2.841213 22.000000,1.000000 
	C183.354233,1.000000 344.708466,1.000000 506.531342,1.000000 
z"/>
<path fill="#000000" opacity="1.000000" stroke="none" 
	d="
M1025.000000,506.531342 
	C1022.989868,502.858215 1023.353699,498.247986 1022.437439,493.886383 
	C1019.187927,478.418121 1012.670776,464.532440 1002.422119,452.505463 
	C1000.140442,449.827911 999.921570,447.749268 1001.390076,444.532318 
	C1018.475098,407.106323 1009.801270,365.145508 981.848816,337.607544 
	C978.150696,333.964264 974.080750,330.773254 969.806763,327.894135 
	C966.994568,325.999725 966.446411,323.768951 966.931030,320.655609 
	C972.619812,284.110291 960.773254,254.144287 932.637329,230.509613 
	C925.068542,224.151688 916.399780,219.422928 907.042542,216.169205 
	C903.400940,214.902908 901.842346,212.933685 901.597778,208.962585 
	C899.125183,168.823151 864.587158,130.897598 824.883606,125.578171 
	C815.596497,124.333885 810.718201,121.328224 806.509338,112.291451 
	C790.281433,77.449318 761.710693,59.815674 723.591736,57.539173 
	C717.986511,57.204422 712.197327,57.671638 706.686401,58.752636 
	C702.209351,59.630856 699.691406,58.530430 697.087891,54.919724 
	C682.940308,35.298889 663.876892,22.859247 640.232300,17.985832 
	C620.123657,13.841212 600.431580,15.838921 581.681946,24.529676 
	C578.362061,26.068512 576.008118,26.006781 573.167297,23.626257 
	C558.335571,11.197429 541.299072,3.880689 521.957886,2.104611 
	C521.485779,2.061261 521.038940,1.743459 520.290161,1.276832 
	C669.354248,1.000000 818.708435,1.000000 968.345398,1.251087 
	C967.003967,2.983116 967.995667,4.545867 968.469849,6.104544 
	C969.494568,9.472754 970.328491,12.911251 969.735107,16.430027 
	C969.280884,19.123150 970.061035,21.237204 971.570312,23.401686 
	C980.531799,36.253803 992.139954,46.862507 1001.743286,59.192879 
	C1007.531799,66.625206 1017.425720,68.060997 1025.000000,73.000000 
	C1025.000000,217.354233 1025.000000,361.708466 1025.000000,506.531342 
z"/>
<path fill="#000000" opacity="1.000000" stroke="none" 
	d="
M231.000000,363.822937 
	C246.164841,363.819275 260.830505,363.729401 275.493927,363.871552 
	C279.269775,363.908203 280.689819,362.853546 280.772827,358.785583 
	C281.787933,309.041016 315.190704,266.393402 363.182465,253.741516 
	C379.128448,249.537750 395.395844,248.779373 411.663208,251.921265 
	C414.910339,252.548416 416.406281,251.489914 418.182343,249.052460 
	C441.228821,217.423615 472.617554,201.241760 511.516479,202.139038 
	C548.355835,202.988815 578.115723,219.184250 599.757141,249.339539 
	C602.405029,253.029099 604.797424,253.929199 609.278992,252.992859 
	C648.444214,244.810089 683.034546,254.070267 711.960999,281.841339 
	C730.721619,299.852692 741.645691,322.158325 744.381653,348.227600 
	C744.711182,351.368073 745.476990,354.554962 745.202881,357.646057 
	C744.731018,362.968536 747.067932,363.988617 751.872803,363.942505 
	C774.701233,363.723328 797.532837,363.839966 820.363342,363.829834 
	C834.114197,363.823730 838.334961,367.955231 838.277954,381.604584 
	C838.204956,399.071808 839.465942,416.670563 835.299011,433.848328 
	C822.915100,484.899536 791.880310,518.958679 741.854919,535.461609 
	C734.886780,537.760315 727.781067,539.637085 720.455505,540.200012 
	C716.333130,540.516724 715.205872,542.343445 715.226501,546.262756 
	C715.356384,570.925598 715.271912,595.589600 715.285828,620.253174 
	C715.314148,670.431824 699.056091,714.807556 666.571472,752.851624 
	C634.548767,790.354736 593.833130,813.525269 545.051697,821.153015 
	C484.000946,830.699097 429.314697,815.257751 382.107147,775.488037 
	C343.658447,743.097046 321.017029,701.317017 312.897095,651.735229 
	C311.201080,641.378967 310.691223,630.892273 310.731750,620.374023 
	C310.824219,596.377380 310.750885,572.380066 310.745422,548.383057 
	C310.743744,541.131348 310.713074,541.314026 303.442322,540.063110 
	C255.046234,531.736877 220.321640,505.301208 199.478088,460.875519 
	C191.296295,443.436951 187.718094,424.872894 187.710129,405.619995 
	C187.706329,396.454468 187.626907,387.288330 187.711121,378.123627 
	C187.795670,368.923431 192.804779,363.910919 202.005463,363.827667 
	C211.502884,363.741730 221.001755,363.817871 231.000000,363.822937 
M508.500061,444.324524 
	C453.514069,444.326965 398.528046,444.329071 343.542053,444.332245 
	C336.091553,444.332672 336.077362,444.335236 336.075195,451.606079 
	C336.058472,507.758881 336.029205,563.911682 336.057220,620.064453 
	C336.060974,627.552246 336.160706,635.024841 337.071716,642.505371 
	C341.845978,681.707214 357.926636,715.636536 385.136597,744.050537 
	C414.943573,775.176453 451.636566,792.870117 494.453308,797.843201 
	C500.630005,798.560608 500.651855,798.576782 500.654144,792.163025 
	C500.664917,761.837158 500.539124,731.510376 500.785706,701.186462 
	C500.826019,696.226746 499.230682,694.422607 494.522491,693.169983 
	C454.939697,682.638733 430.941833,643.453247 440.011749,602.206482 
	C441.657501,594.722046 448.378906,590.152283 455.061066,591.706055 
	C462.094360,593.341431 466.065948,599.790894 464.522858,607.431763 
	C462.919373,615.371277 462.725647,623.275696 464.413422,631.214172 
	C471.817078,666.037476 515.052795,682.493835 543.504456,661.220642 
	C562.204834,647.238403 568.105286,628.540771 563.355530,606.024109 
	C561.917725,599.208313 566.024353,592.877869 572.700256,591.136108 
	C578.781677,589.549500 585.095703,593.080750 587.238220,599.457764 
	C589.048218,604.845032 590.017822,610.453857 590.213135,616.107117 
	C591.508362,653.602051 567.217224,685.514404 530.720825,693.899536 
	C526.242676,694.928406 525.253235,696.733887 525.272522,700.896484 
	C525.414734,731.554932 525.337219,762.214294 525.381897,792.873352 
	C525.384399,794.600708 524.711365,796.554138 526.582336,798.277405 
	C543.065613,796.875854 559.145447,793.038757 574.894775,787.434143 
	C640.541809,764.073181 689.044739,697.251221 689.734985,627.594971 
	C690.317688,568.782104 689.888855,509.959137 689.902344,451.140656 
	C689.903870,444.341431 689.887695,444.328613 682.957214,444.328125 
	C625.138184,444.324158 567.319092,444.325287 508.500061,444.324524 
M629.499939,419.650879 
	C650.331543,419.648773 671.163879,419.552277 691.993958,419.729034 
	C695.884277,419.762054 698.582336,418.601105 700.967773,415.590210 
	C720.235168,391.270752 725.330078,364.052216 716.093262,334.719604 
	C702.015930,290.015015 653.133728,263.853088 605.597473,280.197113 
	C593.810913,284.249573 590.244507,282.666809 584.109253,271.778748 
	C566.144043,239.896393 532.345642,222.962158 496.241882,228.371109 
	C469.656952,232.353958 449.151550,246.099854 435.197632,269.123810 
	C428.954620,279.424805 425.355652,281.225403 413.505524,278.230988 
	C402.432617,275.433014 391.266235,274.319092 379.880920,276.208832 
	C346.701630,281.716034 323.077118,299.771851 311.333191,331.233032 
	C300.202271,361.051941 305.420868,389.181335 324.465912,414.743469 
	C327.208435,418.424530 330.378693,419.755615 335.026428,419.749359 
	C432.850800,419.617493 530.675354,419.649963 629.499939,419.650879 
M252.500000,389.109863 
	C241.012009,389.112610 229.523163,389.194489 218.036530,389.071472 
	C214.443207,389.032990 212.873489,390.280945 213.034439,394.004883 
	C213.249924,398.991150 213.054764,403.993561 213.156464,408.986572 
	C214.080521,454.350586 243.057281,494.657776 285.863373,509.892944 
	C293.620697,512.653870 301.491058,515.363342 310.166077,514.948975 
	C310.376892,513.883789 310.668396,513.094543 310.669678,512.304749 
	C310.709137,488.163391 310.703979,464.021973 310.760803,439.880646 
	C310.766388,437.512482 309.712402,435.792572 308.232574,434.122925 
	C297.814941,422.368744 290.077332,409.076508 285.760254,393.938904 
	C284.694916,390.203461 282.715057,388.972351 278.972107,389.059662 
	C270.485626,389.257599 261.991211,389.114502 252.500000,389.109863 
M792.103760,470.605072 
	C794.659851,466.514404 797.358398,462.505066 799.747864,458.319336 
	C811.306213,438.072235 813.962341,416.015381 812.977295,393.185883 
	C812.807434,389.250244 810.574585,389.076813 807.687012,389.081879 
	C787.370056,389.117554 767.052612,389.196533 746.736694,389.057922 
	C743.006165,389.032471 741.554810,390.578217 740.549927,393.941803 
	C736.153198,408.659393 728.858459,421.844879 718.673279,433.359711 
	C716.341553,435.995880 715.201782,438.700562 715.224731,442.314911 
	C715.368652,464.962433 715.290405,487.611298 715.336792,510.259613 
	C715.340027,511.830414 714.734619,513.612671 716.214294,514.912598 
	C739.709900,513.748169 771.316833,498.702789 792.103760,470.605072 
z"/>
<path fill="#000000" opacity="1.000000" stroke="none" 
	d="
M388.183380,503.209534 
	C399.637421,491.235352 413.424866,487.661499 428.591736,492.186554 
	C442.884674,496.450867 451.635132,506.686646 454.850922,521.492859 
	C459.314758,542.045227 445.495300,562.257629 423.620331,566.940125 
	C404.991119,570.927856 383.831116,556.934570 379.696136,537.969116 
	C376.894135,525.117188 379.353516,513.575500 388.183380,503.209534 
M429.934570,525.573853 
	C427.192657,517.886475 420.695129,514.046082 413.784271,516.028137 
	C406.787262,518.034790 402.465851,524.659119 403.946442,531.108398 
	C405.647125,538.516296 412.136566,543.397888 418.712402,542.215942 
	C426.529327,540.810852 431.248749,534.255798 429.934570,525.573853 
z"/>
<path fill="#000000" opacity="1.000000" stroke="none" 
	d="
M570.621704,527.078491 
	C571.020020,508.641968 585.746826,492.569702 603.475220,490.759003 
	C623.775818,488.685608 641.694275,500.545776 646.112427,518.980408 
	C650.095459,535.599792 643.959839,551.783020 630.188538,560.980408 
	C616.539795,570.096130 598.768250,569.665527 585.355774,559.298584 
	C575.109253,551.378784 570.067322,540.670227 570.621704,527.078491 
M622.346130,530.121704 
	C622.775635,527.880798 621.947083,525.810486 621.193970,523.837097 
	C618.611389,517.070007 610.761597,513.840393 603.847351,516.538025 
	C597.322571,519.083740 593.902527,526.820618 596.400757,533.383728 
	C598.446106,538.757141 603.741943,542.609558 608.935059,542.501587 
	C615.076294,542.374023 620.059998,537.974731 622.346130,530.121704 
z"/>
</svg>