<svg version="1.1" id="Layer_1" xmlns="http://www.w3.org/2000/svg" xmlns:xlink="http://www.w3.org/1999/xlink" x="0px" y="0px"
	 width="100%" viewBox="0 0 1200 1200" enable-background="new 0 0 1200 1200" xml:space="preserve">
<path fill="#000000" opacity="1.000000" stroke="none" 
	d="
M1.000000,613.000000 
	C1.000000,604.312439 1.000000,595.624817 1.372619,586.338257 
	C5.453542,563.965759 13.827579,544.371521 28.550797,527.651245 
	C29.368528,526.722534 29.370344,524.258484 28.752117,523.000366 
	C6.131022,476.965332 18.695349,419.692139 59.128933,388.373199 
	C66.297913,382.820312 68.480522,378.168365 67.451591,368.809265 
	C61.985126,319.086456 87.535095,275.167145 133.332062,254.971832 
	C141.164062,251.518112 146.299637,248.361130 145.351288,239.151382 
	C145.138947,237.089279 146.025436,234.902679 146.467545,232.786240 
	C155.915802,187.554443 193.335464,149.012329 246.503235,144.531525 
	C250.094757,144.228851 251.083389,142.705276 252.115356,139.805786 
	C270.228027,88.915596 324.547882,57.996143 377.249695,68.628960 
	C380.157166,69.215553 381.376007,68.298515 382.829010,66.129440 
	C393.339783,50.438816 407.114990,38.260983 423.996124,29.952164 
	C456.240509,14.081631 488.951172,13.580438 521.714172,28.459478 
	C524.984924,29.944876 526.856995,29.507153 529.471985,27.279388 
	C542.442688,16.229246 557.173462,8.435728 573.773010,4.315054 
	C578.184448,3.219961 582.591125,2.105553 587.000000,1.000003 
	C595.354248,1.000000 603.708496,1.000000 612.697144,1.372819 
	C635.840149,4.127658 655.580444,12.949114 672.713745,27.598801 
	C675.273315,29.787354 677.114380,29.887672 680.119446,28.477610 
	C705.233337,16.693727 731.310547,14.612681 757.950745,22.077337 
	C783.397522,29.207584 803.560364,44.044441 818.725098,65.663292 
	C820.196960,67.761642 821.263672,69.340225 824.600525,68.696106 
	C846.930786,64.385666 868.672913,66.584625 889.526428,75.812866 
	C918.717529,88.730759 938.712830,110.394981 949.800232,140.247131 
	C950.901001,143.210892 952.255859,144.313202 955.365479,144.492569 
	C959.835327,144.750443 964.311646,145.453110 968.707947,146.346069 
	C1017.114807,156.178345 1052.900269,196.344467 1057.059937,245.606979 
	C1057.368286,249.257996 1058.629150,250.936172 1062.201538,252.194443 
	C1112.760010,270.002594 1143.500244,323.506226 1133.486816,376.258820 
	C1132.800659,379.873413 1133.823486,381.529572 1136.609497,383.497864 
	C1181.567383,415.260468 1196.660767,472.253693 1173.354980,522.122864 
	C1172.164551,524.670044 1171.979980,526.300537 1174.037109,528.647583 
	C1186.447144,542.807007 1194.501465,559.202209 1198.353638,577.648132 
	C1199.214478,581.769897 1200.116821,585.882935 1201.000000,590.000000 
	C1201.000000,597.354248 1201.000000,604.708496 1200.654419,612.736450 
	C1197.570068,635.800171 1188.989258,655.676697 1174.365356,672.841553 
	C1172.170898,675.417358 1172.037598,677.238708 1173.484741,680.241760 
	C1182.594482,699.145691 1185.891479,719.148376 1183.446899,739.956299 
	C1179.512695,773.443604 1163.305542,799.685120 1135.787964,818.993469 
	C1133.373779,820.687439 1132.963013,822.283020 1133.508423,825.182922 
	C1136.055298,838.727539 1136.286987,852.400146 1133.441284,865.899170 
	C1124.807861,906.853271 1100.868286,934.953247 1061.739868,949.896484 
	C1058.560791,951.110535 1057.538330,952.693054 1057.206055,955.889587 
	C1056.588745,961.826721 1055.803711,967.802307 1054.392212,973.592163 
	C1042.585693,1022.029236 999.514648,1054.618530 956.346558,1057.141235 
	C952.776611,1057.349731 951.074097,1058.625610 949.790588,1062.258179 
	C932.036133,1112.506470 878.555237,1143.430420 826.154846,1133.670776 
	C822.012329,1132.899170 820.389343,1134.019409 818.216736,1137.082642 
	C786.548706,1181.733643 728.359924,1196.860229 679.359924,1173.230957 
	C676.856873,1172.024048 675.424072,1172.329834 673.326599,1174.127075 
	C659.196838,1186.233887 643.124756,1194.554565 624.797058,1198.310303 
	C620.846863,1199.119873 616.931458,1200.098999 613.000000,1201.000000 
	C604.645752,1201.000000 596.291504,1201.000000 587.308228,1200.633789 
	C564.750977,1197.078857 545.214050,1188.544067 528.461243,1173.959106 
	C526.528503,1172.276489 525.153992,1171.997681 522.858337,1173.145020 
	C501.089813,1184.023438 478.057709,1186.696045 454.348541,1182.345703 
	C424.302582,1176.832764 400.558380,1161.129272 383.030853,1136.104736 
	C381.627075,1134.100464 380.601624,1132.691895 377.554871,1133.279663 
	C323.037415,1143.797119 270.694977,1113.747559 251.857391,1061.156860 
	C250.932266,1058.574097 249.637253,1057.527100 246.977814,1057.300415 
	C242.177307,1056.890747 237.334045,1056.478394 232.633408,1055.479980 
	C184.081024,1045.167114 149.333481,1005.945923 144.826202,956.295959 
	C144.491089,952.604614 143.173721,951.078247 139.681946,949.769592 
	C87.395233,930.173767 58.886581,879.582520 68.527214,824.211365 
	C68.789162,822.706909 67.427071,820.172668 66.058243,819.239685 
	C21.362864,788.776978 4.438530,729.351135 28.865597,679.479614 
	C30.082285,676.995483 29.763565,675.485779 27.926718,673.417664 
	C18.658646,662.982422 11.649807,651.100647 7.332005,637.851440 
	C4.688904,629.741150 3.075713,621.295227 1.000000,613.000000 
M904.500000,426.996979 
	C894.055298,426.996979 883.610657,426.996979 873.428406,426.996979 
	C872.644897,418.856812 872.214966,411.215302 871.135437,403.666656 
	C860.406799,328.643768 785.484070,278.595428 711.992615,297.448395 
	C707.696716,298.550385 705.752747,297.662323 703.220764,294.117249 
	C672.891052,251.651932 631.349304,232.676468 579.714722,238.455322 
	C541.528198,242.729111 511.350189,262.051178 489.405731,293.758148 
	C487.783020,296.102753 486.314026,296.582367 483.696167,296.037354 
	C467.006104,292.562408 450.298615,292.980652 433.589294,296.051147 
	C381.993744,305.532379 338.843445,349.851013 331.042938,401.685791 
	C329.795837,409.972717 329.453735,418.395844 328.671326,426.996979 
	C327.092712,426.996979 325.443298,426.997009 323.793854,426.997009 
	C294.462006,426.997040 265.130127,426.970367 235.798309,427.012787 
	C226.588913,427.026093 220.488602,432.233612 220.538925,441.155731 
	C220.642227,459.464966 219.795898,477.979614 222.167618,496.038391 
	C229.190582,549.512939 257.576202,588.996643 304.491852,615.228516 
	C323.038025,625.598206 343.230438,630.848511 364.658997,633.169434 
	C364.658997,635.107849 364.659058,636.910706 364.658997,638.713562 
	C364.658386,667.545410 364.402679,696.380615 364.772797,725.207703 
	C364.939209,738.171387 365.354736,751.277527 367.376801,764.046753 
	C376.556824,822.018188 403.443573,870.525146 448.270874,908.395508 
	C498.621735,950.932129 557.242065,969.431396 622.849670,963.528015 
	C679.069946,958.469299 727.619507,935.453918 767.495361,895.525574 
	C811.982849,850.979431 835.652832,796.915039 837.083679,733.756592 
	C837.800659,702.107422 837.310425,670.430847 837.365540,638.766663 
	C837.368713,636.960632 837.365967,635.154602 837.365967,633.243042 
	C839.869873,632.865662 841.988464,632.506958 844.117798,632.231018 
	C908.591064,623.874207 962.142273,575.425415 977.233582,512.140564 
	C982.878784,488.467499 981.657410,464.473938 981.319946,440.530609 
	C981.199219,431.966431 975.161865,427.044464 966.496887,427.017639 
	C946.164734,426.954742 925.832336,426.997162 904.500000,426.996979 
z"/>
<path fill="#FFFFFF" opacity="1.000000" stroke="none" 
	d="
M1201.000000,589.531372 
	C1200.116821,585.882935 1199.214478,581.769897 1198.353638,577.648132 
	C1194.501465,559.202209 1186.447144,542.807007 1174.037109,528.647583 
	C1171.979980,526.300537 1172.164551,524.670044 1173.354980,522.122864 
	C1196.660767,472.253693 1181.567383,415.260468 1136.609497,383.497864 
	C1133.823486,381.529572 1132.800659,379.873413 1133.486816,376.258820 
	C1143.500244,323.506226 1112.760010,270.002594 1062.201538,252.194443 
	C1058.629150,250.936172 1057.368286,249.257996 1057.059937,245.606979 
	C1052.900269,196.344467 1017.114807,156.178345 968.707947,146.346069 
	C964.311646,145.453110 959.835327,144.750443 955.365479,144.492569 
	C952.255859,144.313202 950.901001,143.210892 949.800232,140.247131 
	C938.712830,110.394981 918.717529,88.730759 889.526428,75.812866 
	C868.672913,66.584625 846.930786,64.385666 824.600525,68.696106 
	C821.263672,69.340225 820.196960,67.761642 818.725098,65.663292 
	C803.560364,44.044441 783.397522,29.207584 757.950745,22.077337 
	C731.310547,14.612681 705.233337,16.693727 680.119446,28.477610 
	C677.114380,29.887672 675.273315,29.787354 672.713745,27.598801 
	C655.580444,12.949114 635.840149,4.127658 613.165771,1.372819 
	C808.927185,1.000000 1004.854309,1.000000 1201.000000,1.000000 
	C1201.000000,197.020844 1201.000000,393.041748 1201.000000,589.531372 
z"/>
<path fill="#FFFFFF" opacity="1.000000" stroke="none" 
	d="
M613.468628,1201.000000 
	C616.931458,1200.098999 620.846863,1199.119873 624.797058,1198.310303 
	C643.124756,1194.554565 659.196838,1186.233887 673.326599,1174.127075 
	C675.424072,1172.329834 676.856873,1172.024048 679.359924,1173.230957 
	C728.359924,1196.860229 786.548706,1181.733643 818.216736,1137.082642 
	C820.389343,1134.019409 822.012329,1132.899170 826.154846,1133.670776 
	C878.555237,1143.430420 932.036133,1112.506470 949.790588,1062.258179 
	C951.074097,1058.625610 952.776611,1057.349731 956.346558,1057.141235 
	C999.514648,1054.618530 1042.585693,1022.029236 1054.392212,973.592163 
	C1055.803711,967.802307 1056.588745,961.826721 1057.206055,955.889587 
	C1057.538330,952.693054 1058.560791,951.110535 1061.739868,949.896484 
	C1100.868286,934.953247 1124.807861,906.853271 1133.441284,865.899170 
	C1136.286987,852.400146 1136.055298,838.727539 1133.508423,825.182922 
	C1132.963013,822.283020 1133.373779,820.687439 1135.787964,818.993469 
	C1163.305542,799.685120 1179.512695,773.443604 1183.446899,739.956299 
	C1185.891479,719.148376 1182.594482,699.145691 1173.484741,680.241760 
	C1172.037598,677.238708 1172.170898,675.417358 1174.365356,672.841553 
	C1188.989258,655.676697 1197.570068,635.800171 1200.654419,613.205078 
	C1201.000000,808.927063 1201.000000,1004.854187 1201.000000,1201.000000 
	C1005.312500,1201.000000 809.624878,1201.000000 613.468628,1201.000000 
z"/>
<path fill="#FFFFFF" opacity="1.000000" stroke="none" 
	d="
M1.000000,613.468628 
	C3.075713,621.295227 4.688904,629.741150 7.332005,637.851440 
	C11.649807,651.100647 18.658646,662.982422 27.926718,673.417664 
	C29.763565,675.485779 30.082285,676.995483 28.865597,679.479614 
	C4.438530,729.351135 21.362864,788.776978 66.058243,819.239685 
	C67.427071,820.172668 68.789162,822.706909 68.527214,824.211365 
	C58.886581,879.582520 87.395233,930.173767 139.681946,949.769592 
	C143.173721,951.078247 144.491089,952.604614 144.826202,956.295959 
	C149.333481,1005.945923 184.081024,1045.167114 232.633408,1055.479980 
	C237.334045,1056.478394 242.177307,1056.890747 246.977814,1057.300415 
	C249.637253,1057.527100 250.932266,1058.574097 251.857391,1061.156860 
	C270.694977,1113.747559 323.037415,1143.797119 377.554871,1133.279663 
	C380.601624,1132.691895 381.627075,1134.100464 383.030853,1136.104736 
	C400.558380,1161.129272 424.302582,1176.832764 454.348541,1182.345703 
	C478.057709,1186.696045 501.089813,1184.023438 522.858337,1173.145020 
	C525.153992,1171.997681 526.528503,1172.276489 528.461243,1173.959106 
	C545.214050,1188.544067 564.750977,1197.078857 586.839600,1200.633789 
	C391.739441,1201.000000 196.478897,1201.000000 1.000000,1201.000000 
	C1.000000,1005.312500 1.000000,809.624878 1.000000,613.468628 
z"/>
<path fill="#FFFFFF" opacity="1.000000" stroke="none" 
	d="
M586.531372,1.000003 
	C582.591125,2.105553 578.184448,3.219961 573.773010,4.315054 
	C557.173462,8.435728 542.442688,16.229246 529.471985,27.279388 
	C526.856995,29.507153 524.984924,29.944876 521.714172,28.459478 
	C488.951172,13.580438 456.240509,14.081631 423.996124,29.952164 
	C407.114990,38.260983 393.339783,50.438816 382.829010,66.129440 
	C381.376007,68.298515 380.157166,69.215553 377.249695,68.628960 
	C324.547882,57.996143 270.228027,88.915596 252.115356,139.805786 
	C251.083389,142.705276 250.094757,144.228851 246.503235,144.531525 
	C193.335464,149.012329 155.915802,187.554443 146.467545,232.786240 
	C146.025436,234.902679 145.138947,237.089279 145.351288,239.151382 
	C146.299637,248.361130 141.164062,251.518112 133.332062,254.971832 
	C87.535095,275.167145 61.985126,319.086456 67.451591,368.809265 
	C68.480522,378.168365 66.297913,382.820312 59.128933,388.373199 
	C18.695349,419.692139 6.131022,476.965332 28.752117,523.000366 
	C29.370344,524.258484 29.368528,526.722534 28.550797,527.651245 
	C13.827579,544.371521 5.453542,563.965759 1.372619,585.869629 
	C1.000000,391.072845 1.000000,196.145676 1.000000,1.000000 
	C196.020844,1.000000 391.041748,1.000000 586.531372,1.000003 
z"/>
<path fill="#FDFDFD" opacity="1.000000" stroke="none" 
	d="
M905.000000,426.996979 
	C925.832336,426.997162 946.164734,426.954742 966.496887,427.017639 
	C975.161865,427.044464 981.199219,431.966431 981.319946,440.530609 
	C981.657410,464.473938 982.878784,488.467499 977.233582,512.140564 
	C962.142273,575.425415 908.591064,623.874207 844.117798,632.231018 
	C841.988464,632.506958 839.869873,632.865662 837.365967,633.243042 
	C837.365967,635.154602 837.368713,636.960632 837.365540,638.766663 
	C837.310425,670.430847 837.800659,702.107422 837.083679,733.756592 
	C835.652832,796.915039 811.982849,850.979431 767.495361,895.525574 
	C727.619507,935.453918 679.069946,958.469299 622.849670,963.528015 
	C557.242065,969.431396 498.621735,950.932129 448.270874,908.395508 
	C403.443573,870.525146 376.556824,822.018188 367.376801,764.046753 
	C365.354736,751.277527 364.939209,738.171387 364.772797,725.207703 
	C364.402679,696.380615 364.658386,667.545410 364.658997,638.713562 
	C364.659058,636.910706 364.658997,635.107849 364.658997,633.169434 
	C343.230438,630.848511 323.038025,625.598206 304.491852,615.228516 
	C257.576202,588.996643 229.190582,549.512939 222.167618,496.038391 
	C219.795898,477.979614 220.642227,459.464966 220.538925,441.155731 
	C220.488602,432.233612 226.588913,427.026093 235.798309,427.012787 
	C265.130127,426.970367 294.462006,426.997040 323.793854,426.997009 
	C325.443298,426.997009 327.092712,426.996979 328.671326,426.996979 
	C329.453735,418.395844 329.795837,409.972717 331.042938,401.685791 
	C338.843445,349.851013 381.993744,305.532379 433.589294,296.051147 
	C450.298615,292.980652 467.006104,292.562408 483.696167,296.037354 
	C486.314026,296.582367 487.783020,296.102753 489.405731,293.758148 
	C511.350189,262.051178 541.528198,242.729111 579.714722,238.455322 
	C631.349304,232.676468 672.891052,251.651932 703.220764,294.117249 
	C705.752747,297.662323 707.696716,298.550385 711.992615,297.448395 
	C785.484070,278.595428 860.406799,328.643768 871.135437,403.666656 
	C872.214966,411.215302 872.644897,418.856812 873.428406,426.996979 
	C883.610657,426.996979 894.055298,426.996979 905.000000,426.996979 
M392.819916,685.499939 
	C392.820831,699.166199 392.377625,712.851074 392.948456,726.493530 
	C393.511078,739.940002 393.598969,753.675781 396.482788,766.712097 
	C415.471191,852.548767 467.657745,907.360840 552.494568,930.632507 
	C563.561829,933.668396 575.152832,934.794434 586.746338,936.848572 
	C586.746338,894.783813 586.746338,854.006592 586.746338,814.871033 
	C576.252869,810.375854 565.958374,807.212524 556.945068,801.882629 
	C523.299744,781.986938 507.499329,744.027954 516.048950,705.805664 
	C517.448914,699.546875 520.923401,695.225830 527.333923,693.952454 
	C538.298889,691.774475 545.689392,700.713013 543.370789,712.691223 
	C538.703552,736.802368 545.161194,757.478088 564.440796,772.930176 
	C584.014526,788.617859 606.043396,790.664734 628.657471,780.258606 
	C653.318481,768.910583 668.026733,740.547852 660.901855,710.875366 
	C658.823181,702.218384 663.158508,695.031067 671.044250,693.107788 
	C678.625610,691.258728 685.889343,696.117920 688.112732,704.525818 
	C700.154602,750.063477 672.105408,798.721741 626.610229,811.176208 
	C622.811768,812.216125 618.965088,813.080017 615.399536,813.961731 
	C615.399536,854.894348 615.399536,895.443298 615.399536,936.221985 
	C657.020996,932.436218 694.732056,919.102295 727.360229,893.425232 
	C779.767090,852.182983 808.033081,798.041016 808.925171,731.134949 
	C809.858276,661.154968 809.130676,591.152710 809.110535,521.160217 
	C809.110474,520.888855 808.842957,520.617615 808.669067,520.286743 
	C670.139893,520.286743 531.581482,520.286743 392.819916,520.286743 
	C392.819916,575.213745 392.819916,629.856812 392.819916,685.499939 
M799.499023,491.997040 
	C803.830750,491.997040 808.184937,491.723694 812.487488,492.077942 
	C816.389648,492.399170 818.874939,490.944641 821.274597,487.968079 
	C842.289551,461.901215 849.001465,432.522430 841.916077,399.923370 
	C832.510315,356.648987 792.129578,323.363464 747.887756,321.905975 
	C733.500671,321.432037 719.796631,323.890228 706.307739,328.631561 
	C696.966980,331.914856 691.633911,329.676086 686.682678,321.176086 
	C685.093994,318.448578 683.540833,315.698883 681.891479,313.008331 
	C642.346436,248.498993 545.663269,250.254181 508.309692,316.153290 
	C502.149200,327.021667 497.945496,328.767151 485.864105,325.477539 
	C472.361816,321.800995 458.665039,320.656128 444.826782,322.902130 
	C405.781219,329.239288 378.062073,350.678284 364.122833,387.539124 
	C350.306091,424.076080 357.286133,458.101990 381.556488,488.660278 
	C383.654114,491.301331 385.906799,492.061676 389.149933,492.059937 
	C525.599731,491.986664 662.049561,491.997040 799.499023,491.997040 
M300.500000,455.000977 
	C283.249268,455.000977 265.998535,455.000977 249.123978,455.000977 
	C245.457092,499.373199 256.286224,538.232300 288.628265,569.348206 
	C309.731140,589.651001 334.921661,601.529968 364.225800,604.652161 
	C364.444641,603.574097 364.627960,603.091736 364.628296,602.609192 
	C364.648804,573.291077 364.710266,543.972717 364.539093,514.655640 
	C364.527252,512.631897 363.041290,510.427094 361.776428,508.634155 
	C356.990936,501.850677 351.205658,495.638489 347.300018,488.400177 
	C341.594177,477.825470 337.186279,466.550446 331.966187,455.000977 
	C322.460510,455.000977 311.980255,455.000977 300.500000,455.000977 
M894.500000,455.000793 
	C886.040955,455.000793 877.581970,455.000793 868.975403,455.000793 
	C863.360718,476.264923 853.196228,494.701508 838.696228,510.811615 
	C837.579163,512.052673 837.420776,514.475342 837.415527,516.350464 
	C837.338074,544.007324 837.362122,571.664368 837.362122,599.321411 
	C837.362122,600.940613 837.362183,602.559875 837.362183,604.785522 
	C871.349976,600.433899 899.215820,585.927734 921.410034,560.617859 
	C947.953735,530.347961 956.070557,494.533997 952.913757,455.351837 
	C952.588074,455.239532 952.284058,455.043152 951.979736,455.042786 
	C933.153137,455.018585 914.326599,455.010406 894.500000,455.000793 
z"/>
<path fill="#000000" opacity="1.000000" stroke="none" 
	d="
M392.819916,684.999878 
	C392.819916,629.856812 392.819916,575.213745 392.819916,520.286743 
	C531.581482,520.286743 670.139893,520.286743 808.669067,520.286743 
	C808.842957,520.617615 809.110474,520.888855 809.110535,521.160217 
	C809.130676,591.152710 809.858276,661.154968 808.925171,731.134949 
	C808.033081,798.041016 779.767090,852.182983 727.360229,893.425232 
	C694.732056,919.102295 657.020996,932.436218 615.399536,936.221985 
	C615.399536,895.443298 615.399536,854.894348 615.399536,813.961731 
	C618.965088,813.080017 622.811768,812.216125 626.610229,811.176208 
	C672.105408,798.721741 700.154602,750.063477 688.112732,704.525818 
	C685.889343,696.117920 678.625610,691.258728 671.044250,693.107788 
	C663.158508,695.031067 658.823181,702.218384 660.901855,710.875366 
	C668.026733,740.547852 653.318481,768.910583 628.657471,780.258606 
	C606.043396,790.664734 584.014526,788.617859 564.440796,772.930176 
	C545.161194,757.478088 538.703552,736.802368 543.370789,712.691223 
	C545.689392,700.713013 538.298889,691.774475 527.333923,693.952454 
	C520.923401,695.225830 517.448914,699.546875 516.048950,705.805664 
	C507.499329,744.027954 523.299744,781.986938 556.945068,801.882629 
	C565.958374,807.212524 576.252869,810.375854 586.746338,814.871033 
	C586.746338,854.006592 586.746338,894.783813 586.746338,936.848572 
	C575.152832,934.794434 563.561829,933.668396 552.494568,930.632507 
	C467.657745,907.360840 415.471191,852.548767 396.482788,766.712097 
	C393.598969,753.675781 393.511078,739.940002 392.948456,726.493530 
	C392.377625,712.851074 392.820831,699.166199 392.819916,684.999878 
M743.104370,652.625061 
	C744.371399,651.304749 745.685913,650.026489 746.898254,648.657837 
	C763.115845,630.348633 761.180359,601.993042 742.641663,586.091736 
	C723.547668,569.714111 694.982788,571.864990 679.256165,590.864624 
	C664.144531,609.121277 665.414001,634.346375 682.306091,651.470459 
	C698.334229,667.718689 723.984253,668.413940 743.104370,652.625061 
M483.962006,575.209656 
	C482.819977,575.441040 481.682770,575.700195 480.535217,575.899658 
	C460.853821,579.319946 444.926392,596.827637 444.036682,616.029053 
	C442.992554,638.561951 456.500458,657.154114 478.069794,662.871704 
	C496.999084,667.889587 518.706238,658.097290 527.967712,640.370300 
	C544.092224,609.507080 520.617126,572.794189 483.962006,575.209656 
z"/>
<path fill="#000000" opacity="1.000000" stroke="none" 
	d="
M798.999207,491.997040 
	C662.049561,491.997040 525.599731,491.986664 389.149933,492.059937 
	C385.906799,492.061676 383.654114,491.301331 381.556488,488.660278 
	C357.286133,458.101990 350.306091,424.076080 364.122833,387.539124 
	C378.062073,350.678284 405.781219,329.239288 444.826782,322.902130 
	C458.665039,320.656128 472.361816,321.800995 485.864105,325.477539 
	C497.945496,328.767151 502.149200,327.021667 508.309692,316.153290 
	C545.663269,250.254181 642.346436,248.498993 681.891479,313.008331 
	C683.540833,315.698883 685.093994,318.448578 686.682678,321.176086 
	C691.633911,329.676086 696.966980,331.914856 706.307739,328.631561 
	C719.796631,323.890228 733.500671,321.432037 747.887756,321.905975 
	C792.129578,323.363464 832.510315,356.648987 841.916077,399.923370 
	C849.001465,432.522430 842.289551,461.901215 821.274597,487.968079 
	C818.874939,490.944641 816.389648,492.399170 812.487488,492.077942 
	C808.184937,491.723694 803.830750,491.997040 798.999207,491.997040 
z"/>
<path fill="#010101" opacity="1.000000" stroke="none" 
	d="
M301.000000,455.000977 
	C311.980255,455.000977 322.460510,455.000977 331.966187,455.000977 
	C337.186279,466.550446 341.594177,477.825470 347.300018,488.400177 
	C351.205658,495.638489 356.990936,501.850677 361.776428,508.634155 
	C363.041290,510.427094 364.527252,512.631897 364.539093,514.655640 
	C364.710266,543.972717 364.648804,573.291077 364.628296,602.609192 
	C364.627960,603.091736 364.444641,603.574097 364.225800,604.652161 
	C334.921661,601.529968 309.731140,589.651001 288.628265,569.348206 
	C256.286224,538.232300 245.457092,499.373199 249.123978,455.000977 
	C265.998535,455.000977 283.249268,455.000977 301.000000,455.000977 
z"/>
<path fill="#010101" opacity="1.000000" stroke="none" 
	d="
M895.000000,455.000793 
	C914.326599,455.010406 933.153137,455.018585 951.979736,455.042786 
	C952.284058,455.043152 952.588074,455.239532 952.913757,455.351837 
	C956.070557,494.533997 947.953735,530.347961 921.410034,560.617859 
	C899.215820,585.927734 871.349976,600.433899 837.362183,604.785522 
	C837.362183,602.559875 837.362122,600.940613 837.362122,599.321411 
	C837.362122,571.664368 837.338074,544.007324 837.415527,516.350464 
	C837.420776,514.475342 837.579163,512.052673 838.696228,510.811615 
	C853.196228,494.701508 863.360718,476.264923 868.975403,455.000793 
	C877.581970,455.000793 886.040955,455.000793 895.000000,455.000793 
z"/>
<path fill="#FDFDFD" opacity="1.000000" stroke="none" 
	d="
M742.841980,652.864624 
	C723.984253,668.413940 698.334229,667.718689 682.306091,651.470459 
	C665.414001,634.346375 664.144531,609.121277 679.256165,590.864624 
	C694.982788,571.864990 723.547668,569.714111 742.641663,586.091736 
	C761.180359,601.993042 763.115845,630.348633 746.898254,648.657837 
	C745.685913,650.026489 744.371399,651.304749 742.841980,652.864624 
M723.146057,632.782898 
	C729.941833,626.665710 731.652710,619.441406 728.003845,612.269409 
	C724.691406,605.758423 717.494446,602.099243 710.534973,603.504517 
	C703.466064,604.931946 698.884949,609.288025 697.353149,616.222839 
	C695.908447,622.763367 698.041504,628.538635 703.432617,632.597656 
	C709.520874,637.181580 716.020142,637.206543 723.146057,632.782898 
z"/>
<path fill="#FDFDFD" opacity="1.000000" stroke="none" 
	d="
M484.411804,575.170410 
	C520.617126,572.794189 544.092224,609.507080 527.967712,640.370300 
	C518.706238,658.097290 496.999084,667.889587 478.069794,662.871704 
	C456.500458,657.154114 442.992554,638.561951 444.036682,616.029053 
	C444.926392,596.827637 460.853821,579.319946 480.535217,575.899658 
	C481.682770,575.700195 482.819977,575.441040 484.411804,575.170410 
M492.625275,635.516785 
	C493.703125,635.092346 494.820679,634.747192 495.852295,634.230408 
	C502.147980,631.076904 505.727997,624.595337 504.934235,617.875183 
	C504.098297,610.798340 499.125183,605.283997 492.111450,603.656860 
	C485.479736,602.118347 478.570709,604.915649 474.810181,610.788086 
	C471.251770,616.344910 471.140930,622.167297 474.428528,627.780457 
	C478.292877,634.378479 484.347687,636.779541 492.625275,635.516785 
z"/>
<path fill="#040404" opacity="1.000000" stroke="none" 
	d="
M722.827637,632.982788 
	C716.020142,637.206543 709.520874,637.181580 703.432617,632.597656 
	C698.041504,628.538635 695.908447,622.763367 697.353149,616.222839 
	C698.884949,609.288025 703.466064,604.931946 710.534973,603.504517 
	C717.494446,602.099243 724.691406,605.758423 728.003845,612.269409 
	C731.652710,619.441406 729.941833,626.665710 722.827637,632.982788 
z"/>
<path fill="#040404" opacity="1.000000" stroke="none" 
	d="
M492.231171,635.644897 
	C484.347687,636.779541 478.292877,634.378479 474.428528,627.780457 
	C471.140930,622.167297 471.251770,616.344910 474.810181,610.788086 
	C478.570709,604.915649 485.479736,602.118347 492.111450,603.656860 
	C499.125183,605.283997 504.098297,610.798340 504.934235,617.875183 
	C505.727997,624.595337 502.147980,631.076904 495.852295,634.230408 
	C494.820679,634.747192 493.703125,635.092346 492.231171,635.644897 
z"/>
</svg>